# xmcd
#
# Track frame offsets:
#	150
#	17750
#	37125
#	54537
#	73012
#	92387
#	110887
#	131200
#	150325
#	167050
#	188495
#	207231
#	224093
#	242942
#	258992
#	279730
#	295605
#	316405
#	337500
#
# Disc length: 4768 seconds
#
# Revision: 0
# Processed by: cddbd v1.4PL0 Copyright (c) Steve Scherf et al.
# Submitted via: audiograbber 1.81.02
#
DISCID=1b129e13
DTITLE=Various Artist - Best Of Black 02 - CD2
DYEAR=2002
DGENRE=R&B
TTITLE0=Lenny Kravitz - Believe In Me
TTITLE1=Alicia Keys - A Woman`s Worth
TTITLE2=Fat Joe feat. Ashanti - What`s Luv?
TTITLE3=Sarah Connor feat. Wyclef Jean - One Nite Stand
TTITLE4=Destiny`s Child - Nasty Girl
TTITLE5=Maxwell - Lifetime
TTITLE6=Angie Stone - Wish I Didn`t Miss You
TTITLE7=Mary Mary - In The Morning
TTITLE8=Nivea - Run Away
TTITLE9=Macy Gray - Sexual Revolution
TTITLE10=Joe - What If A Woman
TTITLE11=Erick Sermon feat. Marvin Gaye - Music
TTITLE12=The Product G&B - Dirty Dancin´
TTITLE13=Jill Scott - Gimme
TTITLE14=Cypress Hill - Lowrider
TTITLE15=X-Excutioners feat. MOP - Let It Bang
TTITLE16=Busta Rhymes - Pass The Courvoisier
TTITLE17=Wu Tang Clan - Pinky Ring
TTITLE18=Nas - Got Urself A Gun
EXTD=
EXTT0=
EXTT1=
EXTT2=
EXTT3=
EXTT4=
EXTT5=
EXTT6=
EXTT7=
EXTT8=
EXTT9=
EXTT10=
EXTT11=
EXTT12=
EXTT13=
EXTT14=
EXTT15=
EXTT16=
EXTT17=
EXTT18=
PLAYORDER=
